<svg height="256" viewBox="0 0 256 256" width="256" xmlns="http://www.w3.org/2000/svg"><g fill="#bdffd9" stroke-width="4"><circle cx="128" cy="128" r="91" stroke="#7ba68d" stroke-miterlimit="10"/><g stroke="#512500" stroke-linecap="round" stroke-linejoin="round"><path d="m68.1 84.4 11.1 7.5"/><path d="m104.7 177.2-7.5 11.2"/><path d="m171.1 90.1-7.5 11.2"/><path d="m195.4 132.2 7.5 8.4"/><path d="m120.3 186.2 7.5 8.4"/><path d="m138 61.6 7.5 8.4"/><path d="m160.8 142.3-13.8 11.7"/><path d="m195.9 91.9-12.7 17.5"/><path d="m85.2 161.5-12.7 17.4"/><path d="m120.1 100.8 8 6.6"/><path d="m167.3 173.9 8 6.6"/><path d="m56.8 128 16.8 8.4"/><path d="m104.4 132.2-6.8 10.1"/><path d="m101 54.5 14.8 9.3"/></g></g></svg>